<svg width="757" height="190" viewBox="0 0 757 190" fill="none" xmlns="http://www.w3.org/2000/svg">
<rect width="757" height="190" fill="black" fill-opacity="0"/>
<path d="M202.015 44.53C204.043 45.154 205.785 46.532 207.241 48.664C208.697 50.744 209.425 53.136 209.425 55.84C209.425 61.612 207.553 65.928 203.809 68.788C200.065 71.596 194.605 73 187.429 73H155.293C154.721 73 154.227 72.792 153.811 72.376C153.395 71.96 153.187 71.466 153.187 70.894V20.506C153.187 19.934 153.395 19.44 153.811 19.024C154.227 18.608 154.721 18.4 155.293 18.4H186.649C194.033 18.4 199.467 19.752 202.951 22.456C206.487 25.108 208.255 29.138 208.255 34.546V34.78C208.255 37.276 207.579 39.408 206.227 41.176C204.875 42.944 203.471 44.062 202.015 44.53ZM187.117 35.248C187.117 34.312 186.831 33.506 186.259 32.83C185.739 32.154 184.959 31.816 183.919 31.816H173.467V38.914H183.919C184.959 38.914 185.739 38.55 186.259 37.822C186.831 37.042 187.117 36.184 187.117 35.248ZM184.777 59.584C185.973 59.584 186.857 59.194 187.429 58.414C188.053 57.582 188.365 56.672 188.365 55.684V55.606C188.365 54.618 188.027 53.76 187.351 53.032C186.727 52.304 185.869 51.94 184.777 51.94H173.467V59.584H184.777ZM245.976 73.78C237.24 73.78 230.298 71.882 225.15 68.086C220.054 64.29 217.506 58.362 217.506 50.302V20.506C217.506 19.934 217.714 19.44 218.13 19.024C218.546 18.608 219.04 18.4 219.612 18.4H235.914C236.486 18.4 236.98 18.608 237.396 19.024C237.812 19.44 238.02 19.934 238.02 20.506V51.55C238.02 53.682 238.722 55.32 240.126 56.464C241.582 57.608 243.532 58.18 245.976 58.18C248.42 58.18 250.344 57.608 251.748 56.464C253.204 55.32 253.932 53.682 253.932 51.55V20.506C253.932 19.934 254.14 19.44 254.556 19.024C254.972 18.608 255.466 18.4 256.038 18.4H272.34C272.912 18.4 273.406 18.608 273.822 19.024C274.238 19.44 274.446 19.934 274.446 20.506V50.302C274.446 58.362 271.872 64.29 266.724 68.086C261.628 71.882 254.712 73.78 245.976 73.78ZM343.212 70.582C343.316 70.79 343.368 71.024 343.368 71.284C343.368 71.752 343.186 72.168 342.822 72.532C342.51 72.844 342.12 73 341.652 73H323.946C323.218 73 322.542 72.818 321.918 72.454C321.346 72.09 320.93 71.622 320.67 71.05L313.806 55.606H307.254V70.894C307.254 71.466 307.046 71.96 306.63 72.376C306.214 72.792 305.72 73 305.148 73H288.3C287.728 73 287.234 72.792 286.818 72.376C286.402 71.96 286.194 71.466 286.194 70.894V20.506C286.194 19.934 286.402 19.44 286.818 19.024C287.234 18.608 287.728 18.4 288.3 18.4H318.642C323.322 18.4 327.404 19.154 330.888 20.662C334.424 22.17 337.128 24.354 339 27.214C340.872 30.074 341.808 33.428 341.808 37.276C341.808 44.348 339.078 49.47 333.618 52.642L343.212 70.582ZM317.004 41.176C318.148 41.176 319.032 40.812 319.656 40.084C320.28 39.304 320.592 38.342 320.592 37.198C320.592 36.054 320.28 35.066 319.656 34.234C319.084 33.35 318.2 32.908 317.004 32.908H307.254V41.176H317.004ZM409.481 70.582C409.585 70.79 409.637 71.024 409.637 71.284C409.637 71.752 409.455 72.168 409.091 72.532C408.779 72.844 408.389 73 407.921 73H390.215C389.487 73 388.811 72.818 388.187 72.454C387.615 72.09 387.199 71.622 386.939 71.05L380.075 55.606H373.523V70.894C373.523 71.466 373.315 71.96 372.899 72.376C372.483 72.792 371.989 73 371.417 73H354.569C353.997 73 353.503 72.792 353.087 72.376C352.671 71.96 352.463 71.466 352.463 70.894V20.506C352.463 19.934 352.671 19.44 353.087 19.024C353.503 18.608 353.997 18.4 354.569 18.4H384.911C389.591 18.4 393.673 19.154 397.157 20.662C400.693 22.17 403.397 24.354 405.269 27.214C407.141 30.074 408.077 33.428 408.077 37.276C408.077 44.348 405.347 49.47 399.887 52.642L409.481 70.582ZM383.273 41.176C384.417 41.176 385.301 40.812 385.925 40.084C386.549 39.304 386.861 38.342 386.861 37.198C386.861 36.054 386.549 35.066 385.925 34.234C385.353 33.35 384.469 32.908 383.273 32.908H373.523V41.176H383.273ZM455.393 57.01H469.511C470.083 57.01 470.577 57.218 470.993 57.634C471.409 58.05 471.617 58.544 471.617 59.116V70.894C471.617 71.466 471.409 71.96 470.993 72.376C470.577 72.792 470.083 73 469.511 73H420.059C419.487 73 418.993 72.792 418.577 72.376C418.161 71.96 417.953 71.466 417.953 70.894V59.116C417.953 58.544 418.161 58.05 418.577 57.634C418.993 57.218 419.487 57.01 420.059 57.01H434.333V34.39H420.059C419.487 34.39 418.993 34.182 418.577 33.766C418.161 33.35 417.953 32.856 417.953 32.284V20.506C417.953 19.934 418.161 19.44 418.577 19.024C418.993 18.608 419.487 18.4 420.059 18.4H469.511C470.083 18.4 470.577 18.608 470.993 19.024C471.409 19.44 471.617 19.934 471.617 20.506V32.284C471.617 32.856 471.409 33.35 470.993 33.766C470.577 34.182 470.083 34.39 469.511 34.39H455.393V57.01ZM537.964 18.4C538.536 18.4 539.03 18.608 539.446 19.024C539.862 19.44 540.07 19.934 540.07 20.506V33.064C540.07 33.636 539.862 34.13 539.446 34.546C539.03 34.962 538.536 35.17 537.964 35.17H521.194V70.894C521.194 71.466 520.986 71.96 520.57 72.376C520.154 72.792 519.66 73 519.088 73H503.02C502.448 73 501.954 72.792 501.538 72.376C501.122 71.96 500.914 71.466 500.914 70.894V35.17H484.144C483.572 35.17 483.078 34.962 482.662 34.546C482.246 34.13 482.038 33.636 482.038 33.064V20.506C482.038 19.934 482.246 19.44 482.662 19.024C483.078 18.608 483.572 18.4 484.144 18.4H537.964ZM606.34 50.458C606.34 58.414 603.688 64.29 598.384 68.086C593.132 71.882 586.112 73.78 577.324 73.78C568.536 73.78 561.49 71.882 556.186 68.086C550.934 64.29 548.308 58.362 548.308 50.302V41.098C548.308 35.794 549.556 31.4 552.052 27.916C554.6 24.38 558.058 21.78 562.426 20.116C566.794 18.452 571.76 17.62 577.324 17.62C582.888 17.62 587.828 18.452 592.144 20.116C596.512 21.78 599.97 24.354 602.518 27.838C605.066 31.322 606.34 35.69 606.34 40.942V50.458ZM569.368 51.94C569.368 54.072 570.07 55.71 571.474 56.854C572.93 57.998 574.88 58.57 577.324 58.57C579.768 58.57 581.692 57.998 583.096 56.854C584.552 55.658 585.28 53.994 585.28 51.862V39.538C585.28 37.406 584.552 35.768 583.096 34.624C581.692 33.428 579.768 32.83 577.324 32.83C574.88 32.83 572.93 33.402 571.474 34.546C570.07 35.69 569.368 37.328 569.368 39.46V51.94ZM316.536 154.212C322.256 154.836 326.832 155.85 330.264 157.254C333.748 158.658 336.27 160.504 337.83 162.792C339.39 165.08 340.17 167.94 340.17 171.372C340.17 175.116 338.948 178.392 336.504 181.2C334.112 183.956 330.784 186.088 326.52 187.596C322.256 189.052 317.394 189.78 311.934 189.78C305.85 189.78 300.702 189.026 296.49 187.518C292.278 186.01 289.132 184.008 287.052 181.512C284.972 178.964 283.932 176.182 283.932 173.166C283.932 172.646 284.088 172.23 284.4 171.918C284.764 171.606 285.206 171.45 285.726 171.45H301.716C302.808 171.45 303.692 171.788 304.368 172.464C305.252 173.296 306.24 173.868 307.332 174.18C308.424 174.44 309.958 174.57 311.934 174.57C316.874 174.57 319.344 173.816 319.344 172.308C319.344 171.684 319.006 171.164 318.33 170.748C317.706 170.28 316.562 169.89 314.898 169.578C313.286 169.214 310.894 168.85 307.722 168.486C300.598 167.654 295.138 165.886 291.342 163.182C287.546 160.426 285.648 156.552 285.648 151.56C285.648 148.024 286.714 144.904 288.846 142.2C290.978 139.496 293.994 137.39 297.894 135.882C301.846 134.374 306.422 133.62 311.622 133.62C317.03 133.62 321.762 134.478 325.818 136.194C329.874 137.858 332.968 139.938 335.1 142.434C337.232 144.93 338.298 147.374 338.298 149.766C338.298 150.286 338.116 150.702 337.752 151.014C337.44 151.326 336.998 151.482 336.426 151.482H319.656C318.772 151.482 317.966 151.17 317.238 150.546C316.666 150.026 315.99 149.61 315.21 149.298C314.43 148.986 313.234 148.83 311.622 148.83C308.138 148.83 306.396 149.558 306.396 151.014C306.396 151.794 307.072 152.418 308.424 152.886C309.776 153.302 312.48 153.744 316.536 154.212ZM389.123 173.01H403.241C403.813 173.01 404.307 173.218 404.723 173.634C405.139 174.05 405.347 174.544 405.347 175.116V186.894C405.347 187.466 405.139 187.96 404.723 188.376C404.307 188.792 403.813 189 403.241 189H353.789C353.217 189 352.723 188.792 352.307 188.376C351.891 187.96 351.683 187.466 351.683 186.894V175.116C351.683 174.544 351.891 174.05 352.307 173.634C352.723 173.218 353.217 173.01 353.789 173.01H368.063V150.39H353.789C353.217 150.39 352.723 150.182 352.307 149.766C351.891 149.35 351.683 148.856 351.683 148.284V136.506C351.683 135.934 351.891 135.44 352.307 135.024C352.723 134.608 353.217 134.4 353.789 134.4H403.241C403.813 134.4 404.307 134.608 404.723 135.024C405.139 135.44 405.347 135.934 405.347 136.506V148.284C405.347 148.856 405.139 149.35 404.723 149.766C404.307 150.182 403.813 150.39 403.241 150.39H389.123V173.01ZM473.723 186.426C473.879 186.582 473.957 186.79 473.957 187.05C473.957 187.57 473.775 188.038 473.411 188.454C473.099 188.818 472.709 189 472.241 189H455.471C454.067 189 453.001 188.402 452.273 187.206L444.707 175.584L437.297 187.206C436.517 188.402 435.451 189 434.099 189H417.251C416.783 189 416.367 188.844 416.003 188.532C415.691 188.168 415.535 187.752 415.535 187.284V187.05C415.535 186.79 415.613 186.582 415.769 186.426L433.007 160.062L417.641 136.974C417.485 136.766 417.407 136.48 417.407 136.116C417.407 135.648 417.563 135.258 417.875 134.946C418.239 134.582 418.655 134.4 419.123 134.4H435.971C437.323 134.4 438.415 135.05 439.247 136.35L445.331 146.334L451.883 136.194C452.247 135.726 452.637 135.31 453.053 134.946C453.521 134.582 454.197 134.4 455.081 134.4H471.851C472.319 134.4 472.709 134.582 473.021 134.946C473.385 135.258 473.567 135.648 473.567 136.116V136.35C473.567 136.61 473.489 136.818 473.333 136.974L457.031 161.076L473.723 186.426Z" fill="black"/>
<rect width="40" height="37" fill="black" fill-opacity="0" transform="translate(358 89)"/>
<path d="M358 126L398 126" stroke="black" stroke-width="13"/>
<path d="M378 89V107" stroke="black" stroke-width="9"/>
<path d="M391 118C378 118 385.18 118 378 118C370.82 118 374 118 365 118C365 110.82 370.82 105 378 105C385.18 105 391 110.82 391 118Z" fill="black"/>
</svg>
